<svg xmlns="http://www.w3.org/2000/svg" width="10.623" height="10.623" viewBox="0 0 10.623 10.623">
  <g id="União_2" data-name="União 2" transform="translate(0 0.001)" fill="#868686">
    <path d="M 9.865349769592285 10.12247943878174 C 9.796500205993652 10.12247943878174 9.731730461120605 10.09562015533447 9.682950019836426 10.04685020446777 L 5.665349960327148 6.029249668121338 L 5.311800003051758 5.675689697265625 L 4.958250045776367 6.029249668121338 L 0.9406499862670898 10.04685020446777 C 0.8918799757957458 10.09562015533447 0.8270999789237976 10.12247943878174 0.7582499980926514 10.12247943878174 C 0.6894000172615051 10.12247943878174 0.6246200203895569 10.09562015533447 0.5758500099182129 10.04685020446777 C 0.4752800166606903 9.946269989013672 0.4752800166606903 9.78262996673584 0.5758500099182129 9.682049751281738 L 4.59345006942749 5.664449691772461 L 4.947010040283203 5.31089973449707 L 4.59345006942749 4.95734977722168 L 0.5758500099182129 0.9397497177124023 C 0.4752800166606903 0.8391697406768799 0.4752800166606903 0.6755297183990479 0.5758500099182129 0.5749497413635254 C 0.6241400241851807 0.5268097519874573 0.6890699863433838 0.4999997317790985 0.7581400275230408 0.4999997317790985 C 0.7979699969291687 0.4999997317790985 0.874530017375946 0.5097397565841675 0.9397500157356262 0.5749497413635254 L 4.958010196685791 4.592819690704346 L 5.311570167541504 4.94633960723877 L 5.66510009765625 4.592799663543701 L 9.682950019836426 0.5749497413635254 C 9.731719970703125 0.5261797308921814 9.796500205993652 0.4993297457695007 9.865349769592285 0.4993297457695007 C 9.934200286865234 0.4993297457695007 9.998979568481445 0.5261797308921814 10.04775047302246 0.5749497413635254 C 10.14832019805908 0.6755297183990479 10.14832019805908 0.8391697406768799 10.04775047302246 0.9397497177124023 L 6.029950141906738 4.957549571990967 L 5.676380157470703 5.311119556427002 L 6.029960155487061 5.664669513702393 L 10.04776000976563 9.682069778442383 C 10.14776992797852 9.782389640808105 10.14776992797852 9.94650936126709 10.04720973968506 10.04738998413086 C 9.998970031738281 10.09562015533447 9.934200286865234 10.12247943878174 9.865349769592285 10.12247943878174 Z" stroke="none"/>
    <path d="M 9.865349769592285 10.62247943878174 C 9.67140007019043 10.62247943878174 9.477450370788574 10.54844951629639 9.329400062561035 10.40040016174316 L 5.311800003051758 6.382799625396729 L 1.29419994354248 10.40040016174316 C 1.14614999294281 10.54844951629639 0.9521999955177307 10.62247467041016 0.7582499980926514 10.62247467041016 C 0.564300000667572 10.62247467041016 0.3703500032424927 10.54844951629639 0.2223000079393387 10.40040016174316 C -0.07379999756813049 10.10429954528809 -0.07379999756813049 9.624599456787109 0.2223000079393387 9.328499794006348 L 4.2399001121521 5.31089973449707 L 0.2223000079393387 1.293299674987793 C -0.07379999756813049 0.9971997141838074 -0.07379999756813049 0.5174997448921204 0.2223000079393387 0.2213997393846512 C 0.3703500032424927 0.0737997367978096 0.564300000667572 -2.655029334164283e-07 0.7581375241279602 -2.655029334164283e-07 C 0.9519749879837036 -2.655029334164283e-07 1.145699977874756 0.0737997367978096 1.293300032615662 0.2213997393846512 L 5.311550140380859 4.239249706268311 L 9.329400062561035 0.2213997393846512 C 9.477450370788574 0.0733497366309166 9.67140007019043 -0.0006752655026502907 9.865349769592285 -0.0006752655026502907 C 10.05930042266846 -0.0006752655026502907 10.25325012207031 0.0733497366309166 10.40130043029785 0.2213997393846512 C 10.69740009307861 0.5174997448921204 10.69740009307861 0.9971997141838074 10.40130043029785 1.293299674987793 L 6.383500099182129 5.311099529266357 L 10.40130043029785 9.328499794006348 C 10.69649982452393 9.624599456787109 10.69649982452393 10.10429954528809 10.40130043029785 10.40040016174316 C 10.25325012207031 10.54844951629639 10.05930042266846 10.62247943878174 9.865349769592285 10.62247943878174 Z" stroke="none" fill="#707070"/>
  </g>
</svg>
