<svg xmlns="http://www.w3.org/2000/svg" width="55.599" height="38.184" viewBox="0 0 55.599 38.184">
  <g id="credit-card-with-cvv-code" transform="translate(0 -71.77)">
    <g id="Grupo_42" data-name="Grupo 42" transform="translate(0 71.77)">
      <path id="Caminho_17" data-name="Caminho 17" d="M257.792,224.466a4,4,0,0,0,.491-.03,1.074,1.074,0,0,0,.378-.086c.233-.128.236-.361.2-.59a.453.453,0,0,0-.536-.373,1.331,1.331,0,0,1-.814-.108,1.12,1.12,0,0,1-.39-1.416.928.928,0,0,1,.7-.528,1.64,1.64,0,0,1,.485,0,.467.467,0,0,0,.421-.127.672.672,0,0,0,.116-.63c-.139-.32-.587-.306-.881-.306a2.505,2.505,0,0,0-1.487.443,2.206,2.206,0,0,0-.589,2.7A2.055,2.055,0,0,0,257.792,224.466Z" transform="translate(-224.64 -202.256)" fill="#868686"/>
      <path id="Caminho_18" data-name="Caminho 18" d="M286.112,224.695c.143.394.69.287,1.017.287a.469.469,0,0,0,.487-.285c.017-.041.031-.084.047-.125l.715-1.921.332-.892c.1-.264.2-.582-.128-.752a1.193,1.193,0,0,0-.536-.05.485.485,0,0,0-.518.287c-.092.252-.147.523-.218.781-.141.51-.285,1.017-.394,1.536-.148-.734-.39-1.453-.6-2.171a.606.606,0,0,0-.179-.336.793.793,0,0,0-.531-.1.688.688,0,0,0-.545.132.453.453,0,0,0-.087.484Z" transform="translate(-250.372 -202.852)" fill="#868686"/>
      <path id="Caminho_19" data-name="Caminho 19" d="M321.03,224.695c.143.393.69.287,1.018.287a.469.469,0,0,0,.486-.285c.017-.041.031-.084.047-.125l.715-1.921.332-.892c.1-.264.2-.582-.128-.752a1.194,1.194,0,0,0-.536-.05.484.484,0,0,0-.518.287c-.092.252-.147.523-.219.781-.141.51-.286,1.017-.393,1.536-.149-.734-.39-1.453-.6-2.171a.606.606,0,0,0-.179-.336.792.792,0,0,0-.531-.1.687.687,0,0,0-.545.132.452.452,0,0,0-.087.484Z" transform="translate(-281.054 -202.852)" fill="#868686"/>
      <path id="Caminho_20" data-name="Caminho 20" d="M36.888,104.193a12.6,12.6,0,0,1-7.082-2.169H6a2.683,2.683,0,0,1-2.68-2.68V84.886H26.1a12.759,12.759,0,0,1,5.2-4.735l-27.983,0V77.769A2.683,2.683,0,0,1,6,75.089H44.19a2.683,2.683,0,0,1,2.68,2.68V80.15h-4.4a12.673,12.673,0,0,1,6,16.513l1.719,1.6V77.769a6.006,6.006,0,0,0-6-6H6a6.006,6.006,0,0,0-6,6V99.344a6.006,6.006,0,0,0,6,6H44.1l-2.3-2.139A12.64,12.64,0,0,1,36.888,104.193Z" transform="translate(0 -71.77)" fill="#868686"/>
      <path id="Caminho_21" data-name="Caminho 21" d="M61.868,219.974a.873.873,0,0,0-.874.873v2.6a.873.873,0,0,0,.874.873H78.075a12.7,12.7,0,0,1-.139-4.348Z" transform="translate(-53.594 -201.994)" fill="#868686"/>
      <path id="Caminho_22" data-name="Caminho 22" d="M241.034,168.572l-8.911-8.284a11.153,11.153,0,1,0-3.139,3.018l9.091,8.451a2.174,2.174,0,0,0,2.96-3.184Zm-18.057-22.018a7.362,7.362,0,1,1-7.362,7.362A7.37,7.37,0,0,1,222.977,146.554Z" transform="translate(-186.13 -134.154)" fill="#868686"/>
    </g>
  </g>
</svg>
