<svg id="credit-card-payment" xmlns="http://www.w3.org/2000/svg" width="32.791" height="32.79" viewBox="0 0 32.791 32.79">
  <path id="Caminho_4" data-name="Caminho 4" d="M31.948,10.653,22.137.843a2.885,2.885,0,0,0-4.076,0L5.752,13.153H2.882A2.885,2.885,0,0,0,0,16.035V29.908a2.885,2.885,0,0,0,2.882,2.882H24.954a2.885,2.885,0,0,0,2.882-2.882V18.841l4.112-4.112A2.885,2.885,0,0,0,31.948,10.653ZM19.42,2.2a.962.962,0,0,1,1.359,0l5.055,5.055-5.9,5.9H8.469Zm6.494,27.707a.962.962,0,0,1-.961.961H2.882a.962.962,0,0,1-.961-.961V16.035a.962.962,0,0,1,.961-.961H24.954a.962.962,0,0,1,.961.961Zm-.57-16.728a2.9,2.9,0,0,0-.391-.027h-2.3l4.538-4.538,1.359,1.359Zm5.244.19-2.753,2.753v-.089a2.87,2.87,0,0,0-.723-1.906l2.8-2.8.679.679a.962.962,0,0,1,0,1.359Z" transform="translate(0 0)" fill="#2d65af"/>
  <path id="Caminho_5" data-name="Caminho 5" d="M60,406.574h3.575V408.5H60Z" transform="translate(-56.157 -380.534)" fill="#2d65af"/>
  <path id="Caminho_6" data-name="Caminho 6" d="M146.267,406.574h3.575V408.5h-3.575Z" transform="translate(-136.899 -380.534)" fill="#2d65af"/>
  <path id="Caminho_7" data-name="Caminho 7" d="M232.534,406.574h3.575V408.5h-3.575Z" transform="translate(-217.641 -380.534)" fill="#2d65af"/>
  <path id="Caminho_8" data-name="Caminho 8" d="M318.8,406.574h3.575V408.5H318.8Z" transform="translate(-298.383 -380.534)" fill="#2d65af"/>
  <path id="Caminho_9" data-name="Caminho 9" d="M66.486,280.766H60v5.764h6.486Zm-1.921,3.843H61.921v-1.921h2.643Z" transform="translate(-56.157 -262.784)" fill="#2d65af"/>
</svg>
