<svg xmlns="http://www.w3.org/2000/svg" width="118.096" height="78.687" viewBox="0 0 118.096 78.687">
  <g id="Grupo_45" data-name="Grupo 45" transform="translate(-5354.662 -4937.864)">
    <g id="XMLID_1254_" transform="matrix(0.017, -1, 1, 0.017, 5354.662, 5015.566)">
      <g id="XMLID_72_" transform="translate(0 0)">
        <path id="XMLID_107_" d="M54.212,19.705a11.882,11.882,0,0,0-6.3-1.392c-.864,0-1.753.048-2.641.136.69-.565,1.353-1.161,1.964-1.772a11.881,11.881,0,0,0,3.467-5.436,4.483,4.483,0,0,0-5.491-5.491,11.882,11.882,0,0,0-5.436,3.467,27.879,27.879,0,0,0-2.769,3.254,1.1,1.1,0,0,0-1.529.8,20.72,20.72,0,0,1-.882,3.289,7.214,7.214,0,0,0-3.461,0A24.985,24.985,0,0,1,29.8,8.539c0-4.025,1.119-6.334,3.07-6.334a2.579,2.579,0,0,1,2.359,1.871,1.1,1.1,0,0,0,2.027-.87A4.715,4.715,0,0,0,32.867,0a4.509,4.509,0,0,0-3.883,2.243,11.882,11.882,0,0,0-1.392,6.3c0,.864.047,1.753.136,2.641-.565-.69-1.161-1.353-1.771-1.963a11.881,11.881,0,0,0-5.436-3.467,4.482,4.482,0,0,0-5.491,5.491,11.881,11.881,0,0,0,3.467,5.436c.611.611,1.275,1.207,1.966,1.773-.889-.089-1.779-.137-2.643-.137a11.882,11.882,0,0,0-6.3,1.392,4.482,4.482,0,0,0,0,7.766,11.882,11.882,0,0,0,6.3,1.392c.864,0,1.754-.047,2.642-.136-.69.565-1.354,1.161-1.964,1.772a11.882,11.882,0,0,0-3.467,5.436,4.508,4.508,0,0,0,1.16,4.332,4.361,4.361,0,0,0,3.148,1.3,5.366,5.366,0,0,0,1.183-.136,8.843,8.843,0,0,0,3.048-1.436A44.932,44.932,0,0,1,11.2,50.117a10.772,10.772,0,0,0,1.106-4.752,10.8,10.8,0,0,0-4.623-8.851,1.1,1.1,0,0,0-1.261,0,10.782,10.782,0,0,0-1.469,16.47q-2.027.748-4.134,1.3a1.1,1.1,0,1,0,.559,2.133A46.849,46.849,0,0,0,12.54,51.9a8.993,8.993,0,0,0,14.528-.323,1.1,1.1,0,0,0,0-1.261,9.009,9.009,0,0,0-6.833-3.839,47.259,47.259,0,0,0,7.359-8.04c0,.068,0,.137,0,.205a11.882,11.882,0,0,0,1.392,6.3,4.482,4.482,0,0,0,7.766,0,11.882,11.882,0,0,0,1.392-6.3c0-.863-.047-1.753-.136-2.64.565.69,1.161,1.352,1.771,1.962a11.881,11.881,0,0,0,5.436,3.467,5.366,5.366,0,0,0,1.183.136,4.361,4.361,0,0,0,3.148-1.3,4.508,4.508,0,0,0,1.16-4.332A11.882,11.882,0,0,0,47.239,30.5c-.611-.611-1.274-1.206-1.965-1.772.888.088,1.778.136,2.642.136a11.882,11.882,0,0,0,6.3-1.392,4.483,4.483,0,0,0,0-7.766ZM4.008,45.364a8.59,8.59,0,0,1,3.048-6.558,8.578,8.578,0,0,1,0,13.115,8.59,8.59,0,0,1-3.048-6.558Zm20.753,5.577a6.788,6.788,0,0,1-10.152,0,6.788,6.788,0,0,1,10.152,0ZM41.337,10.776A9.978,9.978,0,0,1,45.7,7.9a2.284,2.284,0,0,1,2.854,2.854,9.977,9.977,0,0,1-2.875,4.363,24.981,24.981,0,0,1-6.622,4.726A7.293,7.293,0,0,0,36.611,17.4a24.99,24.99,0,0,1,4.726-6.622ZM37.9,23.588a5.032,5.032,0,1,1-5.032-5.032A5.037,5.037,0,0,1,37.9,23.588ZM17.747,8.468A2.289,2.289,0,0,1,20.033,7.9,9.978,9.978,0,0,1,24.4,10.776,24.983,24.983,0,0,1,29.122,17.4a7.293,7.293,0,0,0-2.447,2.447,24.987,24.987,0,0,1-6.622-4.726C17.208,12.271,16.367,9.848,17.747,8.468Zm-6.263,15.12c0-1.951,2.308-3.07,6.334-3.07a24.985,24.985,0,0,1,8.023,1.34,7.213,7.213,0,0,0,0,3.461,24.985,24.985,0,0,1-8.023,1.34C13.792,26.658,11.484,25.539,11.484,23.588Zm8.549,15.688a2.284,2.284,0,0,1-2.854-2.854,9.977,9.977,0,0,1,2.875-4.363,24.981,24.981,0,0,1,6.622-4.726,7.292,7.292,0,0,0,2.447,2.446A24.981,24.981,0,0,1,24.4,36.4,9.978,9.978,0,0,1,20.033,39.276Zm12.834,5.695c-1.951,0-3.07-2.308-3.07-6.333a24.984,24.984,0,0,1,1.34-8.023,7.213,7.213,0,0,0,3.461,0,24.984,24.984,0,0,1,1.34,8.023C35.937,42.662,34.818,44.971,32.867,44.971Zm15.688-8.549A2.284,2.284,0,0,1,45.7,39.276,9.979,9.979,0,0,1,41.337,36.4a24.983,24.983,0,0,1-4.726-6.622,7.294,7.294,0,0,0,2.447-2.446,24.981,24.981,0,0,1,6.622,4.726A9.976,9.976,0,0,1,48.554,36.422Zm-.639-9.763a24.983,24.983,0,0,1-8.023-1.34,7.213,7.213,0,0,0,0-3.46,24.984,24.984,0,0,1,8.023-1.34c4.025,0,6.334,1.119,6.334,3.07s-2.308,3.07-6.334,3.07Z" fill="#cbcbcb"/>
        <path id="XMLID_122_" d="M.323.323a1.1,1.1,0,0,0,0,1.559,1.1,1.1,0,0,0,1.559,0,1.1,1.1,0,0,0,0-1.559,1.1,1.1,0,0,0-1.559,0Z" transform="translate(35.937 7.436)" fill="#cbcbcb"/>
      </g>
    </g>
    <g id="XMLID_1254_2" data-name="XMLID_1254_" transform="matrix(-0.017, -1, 1, -0.017, 5416.311, 5016.551)">
      <g id="XMLID_72_2" data-name="XMLID_72_" transform="translate(0 0)">
        <path id="XMLID_107_2" data-name="XMLID_107_" d="M54.211,36.75a11.882,11.882,0,0,1-6.3,1.392c-.864,0-1.753-.048-2.641-.136.69.565,1.353,1.161,1.964,1.772a11.881,11.881,0,0,1,3.467,5.436,4.483,4.483,0,0,1-5.491,5.491,11.882,11.882,0,0,1-5.436-3.467,27.879,27.879,0,0,1-2.769-3.254,1.1,1.1,0,0,1-1.529-.8,20.72,20.72,0,0,0-.882-3.289,7.214,7.214,0,0,1-3.461,0,24.985,24.985,0,0,0-1.34,8.023c0,4.025,1.119,6.334,3.07,6.334a2.579,2.579,0,0,0,2.359-1.871,1.1,1.1,0,1,1,2.027.87,4.715,4.715,0,0,1-4.386,3.207,4.509,4.509,0,0,1-3.883-2.243,11.882,11.882,0,0,1-1.392-6.3c0-.864.047-1.753.136-2.641-.565.69-1.161,1.353-1.771,1.963a11.881,11.881,0,0,1-5.436,3.467,4.482,4.482,0,0,1-5.491-5.491,11.881,11.881,0,0,1,3.467-5.436c.611-.611,1.275-1.207,1.966-1.773-.889.089-1.779.137-2.643.137a11.882,11.882,0,0,1-6.3-1.392,4.482,4.482,0,0,1,0-7.766,11.882,11.882,0,0,1,6.3-1.392c.864,0,1.754.047,2.642.136-.69-.565-1.354-1.161-1.964-1.772a11.882,11.882,0,0,1-3.467-5.436,4.508,4.508,0,0,1,1.16-4.332,4.361,4.361,0,0,1,3.148-1.3,5.366,5.366,0,0,1,1.183.136,8.843,8.843,0,0,1,3.048,1.436A44.932,44.932,0,0,0,11.2,6.338a10.773,10.773,0,0,1,1.106,4.752,10.8,10.8,0,0,1-4.623,8.851,1.1,1.1,0,0,1-1.261,0A10.782,10.782,0,0,1,4.957,3.472Q2.93,2.724.824,2.17A1.1,1.1,0,1,1,1.382.036,46.848,46.848,0,0,1,12.54,4.56a8.993,8.993,0,0,1,14.528.323,1.1,1.1,0,0,1,0,1.261,9.009,9.009,0,0,1-6.833,3.839,47.259,47.259,0,0,1,7.359,8.04c0-.068,0-.137,0-.205a11.882,11.882,0,0,1,1.392-6.3,4.482,4.482,0,0,1,7.766,0,11.882,11.882,0,0,1,1.392,6.3c0,.863-.047,1.753-.136,2.64.565-.69,1.161-1.352,1.771-1.962a11.881,11.881,0,0,1,5.436-3.467,5.366,5.366,0,0,1,1.183-.136,4.361,4.361,0,0,1,3.148,1.3,4.508,4.508,0,0,1,1.16,4.332,11.882,11.882,0,0,1-3.467,5.436c-.611.611-1.274,1.206-1.965,1.772.888-.088,1.778-.136,2.642-.136a11.882,11.882,0,0,1,6.3,1.392,4.483,4.483,0,0,1,0,7.766ZM4.008,11.091a8.59,8.59,0,0,0,3.048,6.558,8.578,8.578,0,0,0,0-13.115,8.59,8.59,0,0,0-3.048,6.558ZM24.761,5.514a6.788,6.788,0,0,0-10.152,0,6.788,6.788,0,0,0,10.152,0ZM41.337,45.68A9.978,9.978,0,0,0,45.7,48.555,2.284,2.284,0,0,0,48.554,45.7a9.978,9.978,0,0,0-2.875-4.363,24.981,24.981,0,0,0-6.622-4.726,7.293,7.293,0,0,1-2.446,2.447A24.99,24.99,0,0,0,41.337,45.68ZM37.9,32.867A5.032,5.032,0,1,0,32.866,37.9,5.037,5.037,0,0,0,37.9,32.867ZM17.747,47.987a2.289,2.289,0,0,0,2.286.568A9.978,9.978,0,0,0,24.4,45.679a24.983,24.983,0,0,0,4.726-6.622,7.293,7.293,0,0,1-2.446-2.447,24.987,24.987,0,0,0-6.622,4.726C17.208,44.184,16.367,46.607,17.747,47.987Zm-6.263-15.12c0,1.951,2.308,3.07,6.333,3.07A24.984,24.984,0,0,0,25.84,34.6a7.214,7.214,0,0,1,0-3.461,24.984,24.984,0,0,0-8.023-1.34C13.792,29.8,11.484,30.916,11.484,32.867Zm8.549-15.688a2.284,2.284,0,0,0-2.854,2.854A9.978,9.978,0,0,0,20.054,24.4a24.981,24.981,0,0,0,6.622,4.726,7.292,7.292,0,0,1,2.446-2.446A24.981,24.981,0,0,0,24.4,20.055,9.977,9.977,0,0,0,20.033,17.179Zm12.834-5.695c-1.951,0-3.07,2.308-3.07,6.333a24.984,24.984,0,0,0,1.34,8.023,7.213,7.213,0,0,1,3.461,0,24.984,24.984,0,0,0,1.34-8.023C35.937,13.793,34.818,11.484,32.866,11.484Zm15.688,8.549A2.284,2.284,0,0,0,45.7,17.179a9.978,9.978,0,0,0-4.363,2.875,24.983,24.983,0,0,0-4.726,6.622,7.294,7.294,0,0,1,2.446,2.446A24.981,24.981,0,0,0,45.679,24.4,9.976,9.976,0,0,0,48.554,20.033ZM47.916,29.8a24.983,24.983,0,0,0-8.023,1.34,7.213,7.213,0,0,1,0,3.461,24.984,24.984,0,0,0,8.023,1.34c4.025,0,6.333-1.119,6.333-3.07s-2.308-3.07-6.333-3.07Z" fill="#cbcbcb"/>
        <path id="XMLID_122_2" data-name="XMLID_122_" d="M.323,1.882a1.1,1.1,0,0,1,0-1.559,1.1,1.1,0,0,1,1.559,0,1.1,1.1,0,0,1,0,1.559,1.1,1.1,0,0,1-1.559,0Z" transform="translate(35.937 46.814)" fill="#cbcbcb"/>
      </g>
    </g>
    <g id="Grupo_44" data-name="Grupo 44" transform="translate(5390.348 4937.864)">
      <path id="Subtração_2" data-name="Subtração 2" d="M23.916,47.171a4.521,4.521,0,0,1-3.841-2.176,11.87,11.87,0,0,1-1.5-6.271,26,26,0,0,1,.091-2.643c-.568.719-1.154,1.389-1.738,1.994a11.881,11.881,0,0,1-5.376,3.562,5.346,5.346,0,0,1-1.267.158,4.421,4.421,0,0,1-4.434-4.368,5.265,5.265,0,0,1,.115-1.186c.037-.178.083-.359.137-.539l.02-.01.02-.009a1.112,1.112,0,0,1,.072-.324,10,10,0,0,1,1.133-2.191c-.06.052-.121.106-.172.153A21.2,21.2,0,0,1,9.889,29.8c.042,0,.737-.6.907-.752L8.6,29.124c-.119,0-.238,0-.354,0a11.515,11.515,0,0,1-5.936-1.286,4.482,4.482,0,0,1-.136-7.766,11.894,11.894,0,0,1,6.271-1.5q.222,0,.446,0c.708,0,1.446.031,2.2.092-.719-.569-1.389-1.154-1.992-1.736a11.9,11.9,0,0,1-3.562-5.374,5.426,5.426,0,0,1-.156-1.183A4.426,4.426,0,0,1,9.826,5.849a5.427,5.427,0,0,1,1.1.117,11.86,11.86,0,0,1,5.5,3.371c.607.586,1.214,1.236,1.807,1.933a26.322,26.322,0,0,1-.182-2.64,11.869,11.869,0,0,1,1.282-6.318A4.51,4.51,0,0,1,23.174,0h.082A4.516,4.516,0,0,1,27.1,2.176a11.872,11.872,0,0,1,1.5,6.271c.014.849-.016,1.738-.091,2.643.574-.724,1.159-1.4,1.738-1.994a11.875,11.875,0,0,1,5.375-3.562,5.342,5.342,0,0,1,1.265-.157,4.36,4.36,0,0,1,3.087,1.243,4.51,4.51,0,0,1,1.235,4.31,11.912,11.912,0,0,1-3.371,5.5,28.121,28.121,0,0,1-3.205,2.827,1.051,1.051,0,0,1,.079.238,1.1,1.1,0,0,1-.856,1.3,20.561,20.561,0,0,0-3.272.939,7.227,7.227,0,0,1,.24,1.726,7.3,7.3,0,0,1-.179,1.736A24.987,24.987,0,0,0,38.3,26.4c.129,0,.256,0,.383,0a11.016,11.016,0,0,0,4.662-.886,2.5,2.5,0,0,0,1.617-2.3,2.579,2.579,0,0,0-1.911-2.326,1.1,1.1,0,0,1,.834-2.041,4.717,4.717,0,0,1,3.282,4.33A4.509,4.509,0,0,1,45,27.1a11.891,11.891,0,0,1-6.271,1.5c-.134,0-.269,0-.4,0-.723,0-1.476-.032-2.239-.094a26.275,26.275,0,0,1,1.994,1.738,11.857,11.857,0,0,1,3.561,5.375,4.505,4.505,0,0,1-1.083,4.349,4.362,4.362,0,0,1-3.211,1.352,5.419,5.419,0,0,1-1.1-.117,11.876,11.876,0,0,1-5.5-3.371c-.615-.594-1.223-1.245-1.807-1.935.107.911.168,1.8.183,2.641a11.893,11.893,0,0,1-1.282,6.32A4.506,4.506,0,0,1,24,47.17ZM21.979,30.64h0a24.918,24.918,0,0,0-1.2,8.046c.068,3.99,1.212,6.278,3.138,6.279h.042a2.493,2.493,0,0,0,2.237-1.7,11,11,0,0,0,.721-4.689,24.862,24.862,0,0,0-1.48-8,7.285,7.285,0,0,1-1.726.24h-.121A7.235,7.235,0,0,1,21.979,30.64Zm-4.517-3.2h0a24.836,24.836,0,0,0-6.537,4.842,9.967,9.967,0,0,0-2.8,4.411,2.286,2.286,0,0,0,.608,2.277,2.118,2.118,0,0,0,1.537.626,3.238,3.238,0,0,0,.758-.1,9.972,9.972,0,0,0,4.312-2.951,24.875,24.875,0,0,0,4.61-6.7,7.316,7.316,0,0,1-2.49-2.4Zm12.38-.215h0a7.317,7.317,0,0,1-2.4,2.487,24.907,24.907,0,0,0,4.842,6.539c1.944,1.876,3.692,2.868,5.055,2.868a2.186,2.186,0,0,0,1.633-.677,2.289,2.289,0,0,0,.527-2.3,9.956,9.956,0,0,0-2.951-4.312,24.868,24.868,0,0,0-6.7-4.61Zm-6.256-8.668H23.5a5.036,5.036,0,0,0-4.941,5.119,5.054,5.054,0,0,0,5.03,4.944h.087a5.032,5.032,0,0,0-.088-10.063ZM8.85,20.774c-.122,0-.243,0-.364,0-4.025.071-6.314,1.23-6.28,3.181.034,1.882,2.227,2.962,6.017,2.962.122,0,.245,0,.37,0a24.916,24.916,0,0,0,8-1.479,7.15,7.15,0,0,1-.24-1.728,7.28,7.28,0,0,1,.18-1.732A25.046,25.046,0,0,0,8.85,20.774ZM9.812,8.052A2.137,2.137,0,0,0,8.2,8.731a2.291,2.291,0,0,0-.527,2.3,9.973,9.973,0,0,0,2.951,4.311,24.843,24.843,0,0,0,6.7,4.61,7.312,7.312,0,0,1,2.4-2.487,24.95,24.95,0,0,0-4.841-6.539,9.973,9.973,0,0,0-4.412-2.8A3.317,3.317,0,0,0,9.812,8.052ZM36.9,7.579a3.2,3.2,0,0,0-.755.1,9.994,9.994,0,0,0-4.312,2.951,24.913,24.913,0,0,0-4.61,6.7,7.316,7.316,0,0,1,2.49,2.4,24.9,24.9,0,0,0,6.536-4.84,9.968,9.968,0,0,0,2.8-4.413A2.287,2.287,0,0,0,38.44,8.2,2.125,2.125,0,0,0,36.9,7.579ZM23.234,2.205h-.02c-1.951.035-3.03,2.363-2.959,6.387a24.841,24.841,0,0,0,1.48,8,7.285,7.285,0,0,1,1.726-.24h.118a7.371,7.371,0,0,1,1.616.182,24.9,24.9,0,0,0,1.2-8.046c-.068-3.99-1.212-6.278-3.138-6.279Z" transform="translate(0 0)" fill="#cbcbcb"/>
      <path id="XMLID_122_3" data-name="XMLID_122_" d="M.323,1.882a1.1,1.1,0,0,1,0-1.559,1.1,1.1,0,0,1,1.559,0,1.1,1.1,0,0,1,0,1.559,1.1,1.1,0,0,1-1.559,0Z" transform="matrix(-0.017, -1, 1, -0.017, 37.477, 20.273)" fill="#cbcbcb"/>
    </g>
  </g>
</svg>
