<svg xmlns="http://www.w3.org/2000/svg" width="79.84" height="79.84" viewBox="0 0 79.84 79.84">
  <g id="Grupo_47" data-name="Grupo 47" transform="translate(0 0)">
    <g id="XMLID_1254_" transform="translate(39.919 79.84) rotate(-135)">
      <g id="XMLID_72_" transform="translate(0)">
        <path id="XMLID_107_" d="M54.212,36.75a11.882,11.882,0,0,1-6.3,1.392c-.864,0-1.753-.048-2.641-.136.69.565,1.353,1.161,1.964,1.772a11.881,11.881,0,0,1,3.467,5.436,4.483,4.483,0,0,1-5.491,5.491,11.882,11.882,0,0,1-5.436-3.467,27.88,27.88,0,0,1-2.769-3.254,1.1,1.1,0,0,1-1.529-.8,20.721,20.721,0,0,0-.882-3.289,7.214,7.214,0,0,1-3.461,0,24.985,24.985,0,0,0-1.34,8.023c0,4.025,1.119,6.334,3.07,6.334a2.579,2.579,0,0,0,2.359-1.871,1.1,1.1,0,0,1,2.027.87,4.715,4.715,0,0,1-4.386,3.207,4.509,4.509,0,0,1-3.883-2.243,11.882,11.882,0,0,1-1.392-6.3c0-.864.047-1.753.136-2.641-.565.69-1.161,1.353-1.771,1.963a11.881,11.881,0,0,1-5.436,3.467,4.482,4.482,0,0,1-5.491-5.491,11.881,11.881,0,0,1,3.467-5.436c.611-.611,1.275-1.207,1.966-1.773-.889.089-1.779.137-2.643.137a11.882,11.882,0,0,1-6.3-1.392,4.482,4.482,0,0,1,0-7.766,11.882,11.882,0,0,1,6.3-1.392c.864,0,1.754.047,2.642.136-.69-.565-1.354-1.161-1.964-1.772a11.882,11.882,0,0,1-3.467-5.436,4.508,4.508,0,0,1,1.16-4.332,4.361,4.361,0,0,1,3.148-1.3,5.366,5.366,0,0,1,1.183.136,8.843,8.843,0,0,1,3.048,1.436A44.932,44.932,0,0,0,11.2,6.338a10.773,10.773,0,0,1,1.106,4.752,10.8,10.8,0,0,1-4.623,8.851,1.1,1.1,0,0,1-1.261,0A10.782,10.782,0,0,1,4.957,3.472Q2.93,2.724.823,2.17A1.1,1.1,0,1,1,1.382.036,46.849,46.849,0,0,1,12.54,4.56a8.993,8.993,0,0,1,14.528.323,1.1,1.1,0,0,1,0,1.261,9.009,9.009,0,0,1-6.833,3.839,47.26,47.26,0,0,1,7.359,8.04c0-.068,0-.137,0-.205a11.882,11.882,0,0,1,1.392-6.3,4.482,4.482,0,0,1,7.766,0,11.882,11.882,0,0,1,1.392,6.3c0,.863-.047,1.753-.136,2.64.565-.69,1.161-1.352,1.771-1.962a11.881,11.881,0,0,1,5.436-3.467,5.366,5.366,0,0,1,1.183-.136,4.361,4.361,0,0,1,3.148,1.3,4.508,4.508,0,0,1,1.16,4.332,11.882,11.882,0,0,1-3.467,5.436c-.611.611-1.274,1.206-1.965,1.772.888-.088,1.778-.136,2.642-.136a11.882,11.882,0,0,1,6.3,1.392,4.483,4.483,0,0,1,0,7.766Zm-50.2-25.66a8.59,8.59,0,0,0,3.048,6.558,8.578,8.578,0,0,0,0-13.115,8.59,8.59,0,0,0-3.048,6.558ZM24.761,5.514a6.788,6.788,0,0,0-10.152,0,6.788,6.788,0,0,0,10.152,0ZM41.337,45.68A9.978,9.978,0,0,0,45.7,48.555,2.284,2.284,0,0,0,48.554,45.7a9.978,9.978,0,0,0-2.875-4.363,24.981,24.981,0,0,0-6.622-4.726,7.293,7.293,0,0,1-2.447,2.447,24.991,24.991,0,0,0,4.726,6.622ZM37.9,32.867A5.032,5.032,0,1,0,32.867,37.9,5.037,5.037,0,0,0,37.9,32.867ZM17.747,47.987a2.289,2.289,0,0,0,2.286.568A9.978,9.978,0,0,0,24.4,45.68a24.983,24.983,0,0,0,4.726-6.622,7.293,7.293,0,0,1-2.447-2.447,24.986,24.986,0,0,0-6.622,4.726C17.208,44.184,16.367,46.608,17.747,47.987Zm-6.263-15.12c0,1.951,2.308,3.07,6.334,3.07A24.985,24.985,0,0,0,25.84,34.6a7.213,7.213,0,0,1,0-3.461,24.985,24.985,0,0,0-8.023-1.34C13.792,29.8,11.484,30.916,11.484,32.867Zm8.549-15.688a2.284,2.284,0,0,0-2.854,2.854A9.978,9.978,0,0,0,20.054,24.4a24.982,24.982,0,0,0,6.622,4.726,7.292,7.292,0,0,1,2.447-2.446A24.981,24.981,0,0,0,24.4,20.055,9.978,9.978,0,0,0,20.033,17.179Zm12.834-5.695c-1.951,0-3.07,2.308-3.07,6.333a24.984,24.984,0,0,0,1.34,8.023,7.213,7.213,0,0,1,3.461,0,24.983,24.983,0,0,0,1.34-8.023C35.937,13.793,34.818,11.485,32.867,11.485Zm15.688,8.549A2.284,2.284,0,0,0,45.7,17.18a9.979,9.979,0,0,0-4.363,2.875,24.983,24.983,0,0,0-4.726,6.622,7.294,7.294,0,0,1,2.447,2.446A24.981,24.981,0,0,0,45.679,24.4,9.976,9.976,0,0,0,48.554,20.034ZM47.916,29.8a24.983,24.983,0,0,0-8.023,1.34,7.213,7.213,0,0,1,0,3.461,24.984,24.984,0,0,0,8.023,1.34c4.025,0,6.334-1.119,6.334-3.07s-2.308-3.07-6.334-3.07Z" fill="#2d65af"/>
        <path id="XMLID_122_" d="M.323,1.882a1.1,1.1,0,0,1,0-1.559,1.1,1.1,0,0,1,1.559,0,1.1,1.1,0,0,1,0,1.559,1.1,1.1,0,0,1-1.559,0Z" transform="translate(35.937 46.814)" fill="#2d65af"/>
      </g>
    </g>
  </g>
</svg>
