<svg xmlns="http://www.w3.org/2000/svg" width="16.621" height="33.244" viewBox="0 0 16.621 33.244">
  <g id="flower" transform="translate(-128.013 0)">
    <path id="Caminho_13" data-name="Caminho 13" d="M144.634,10.39V5.2A1.039,1.039,0,0,0,143.6,4.157h-1.039V1.041A1.039,1.039,0,0,0,141.518,0a11.052,11.052,0,0,0-6.367,1.471,12.361,12.361,0,0,0-4.021-.432,1.039,1.039,0,0,0-1.039,1.039V4.157h-1.039A1.039,1.039,0,0,0,128.013,5.2V10.39a8.323,8.323,0,0,0,7.272,8.246V32.205a1.039,1.039,0,0,0,2.078,0V28.569h1.558a5.72,5.72,0,0,0,5.713-5.713V21.3a1.039,1.039,0,0,0-1.039-1.039H141a5.687,5.687,0,0,0-3.636,1.309V18.635a8.305,8.305,0,0,0,7.272-8.245Zm-2.078,0a6.225,6.225,0,0,1-2.11,4.663,4.177,4.177,0,0,0,.032-.508,10.345,10.345,0,0,0-2.6-6.868,8.293,8.293,0,0,1,4.679-1.443Zm-2.078-8.311V4.367q-.288.059-.572.133a10.393,10.393,0,0,0-2.282-1.916A8.3,8.3,0,0,1,140.479,2.079Zm-8.311,1.039a8.257,8.257,0,0,1,5.627,2.193,10.365,10.365,0,0,0-1.474.926,10.345,10.345,0,0,0-4.152-1.872Zm-2.078,7.272V6.235a8.32,8.32,0,0,1,8.311,8.311,2.08,2.08,0,0,1-2.132,2.077A6.235,6.235,0,0,1,130.091,10.39ZM141,22.336h1.558v.519a3.64,3.64,0,0,1-3.636,3.636h-1.558v-.519A3.64,3.64,0,0,1,141,22.336Z" transform="translate(0 0)" fill="#366aaa"/>
  </g>
</svg>
