<svg xmlns="http://www.w3.org/2000/svg" width="27" height="32.5" viewBox="0 0 27 32.5">
  <g id="Grupo_3152" data-name="Grupo 3152" transform="translate(-1150.5 394)">
    <g id="Subtração_1" data-name="Subtração 1" transform="translate(1145 -373)" fill="none" stroke-linecap="round" stroke-linejoin="round">
      <path d="M30,9H8a8.209,8.209,0,0,1,3.222-6.364A12.266,12.266,0,0,1,19,0a12.268,12.268,0,0,1,7.779,2.636A8.209,8.209,0,0,1,30,9Z" stroke="none"/>
      <path d="M 30.00019836425781 8.999600410461426 L 30.00019836425781 8.998909950256348 C 29.99991798400879 6.595270156860352 28.85569953918457 4.335540294647217 26.77831840515137 2.635970115661621 C 24.70061874389648 0.9361401796340942 21.93814849853516 2.052307195299363e-07 18.99976921081543 2.052307195299363e-07 C 16.06171798706055 2.052307195299363e-07 13.29947853088379 0.9361401796340942 11.22187900543213 2.635970115661621 C 9.14457893371582 4.335550308227539 8.000099182128906 6.595280170440674 8.000099182128906 8.999600410461426 L 29.99935913085938 8.999600410461426 L 30.00019836425781 8.999600410461426 M 30.00019836425781 11.49960041046143 L 29.99935913085938 11.49960041046143 L 8.000099182128906 11.49960041046143 C 6.619388580322266 11.49960041046143 5.500098705291748 10.38031005859375 5.500098705291748 8.999600410461426 C 5.500098705291748 5.831799983978271 6.969918727874756 2.884660243988037 9.638798713684082 0.7010601758956909 C 12.16178894042969 -1.36316978931427 15.48624897003174 -2.499999761581421 18.99976921081543 -2.499999761581421 C 22.51358795166016 -2.499999761581421 25.8382682800293 -1.363189816474915 28.36135864257813 0.7010301947593689 C 31.02995872497559 2.884300231933594 32.49982833862305 5.831110000610352 32.50019836425781 8.99862003326416 C 32.50027847290039 9.661709785461426 32.23691940307617 10.298020362854 31.76806831359863 10.76692008972168 C 31.29921913146973 11.23581981658936 30.66328811645508 11.49960041046143 30.00019836425781 11.49960041046143 Z" stroke="none" fill="#2d65af"/>
    </g>
    <g id="Elipse_2" data-name="Elipse 2" transform="translate(1156 -394)" fill="none" stroke="#2d65af" stroke-width="2.5">
      <circle cx="8" cy="8" r="8" stroke="none"/>
      <circle cx="8" cy="8" r="6.75" fill="none"/>
    </g>
  </g>
</svg>
