<svg xmlns="http://www.w3.org/2000/svg" width="53.77" height="54.063" viewBox="0 0 53.77 54.063">
  <g id="Grupo_3221" data-name="Grupo 3221" transform="translate(-1001.979 -413.938)">
    <g id="pin" transform="translate(929.853 413.938)">
      <path id="Caminho_3" data-name="Caminho 3" d="M115.41,9.257A18.874,18.874,0,0,0,99.438,0C99.154,0,98.869,0,98.585,0A18.875,18.875,0,0,0,82.613,9.257a18.43,18.43,0,0,0-.252,18.6L96.1,52.392l.019.033a3.38,3.38,0,0,0,5.792,0l.019-.033,13.735-24.538a18.43,18.43,0,0,0-.252-18.6ZM99.012,24.5a7.706,7.706,0,0,1-7.789-7.6,7.792,7.792,0,0,1,15.579,0A7.706,7.706,0,0,1,99.012,24.5Z" transform="translate(0 0)" fill="#ebebeb"/>
    </g>
    <rect id="Retângulo_959" data-name="Retângulo 959" width="53.77" height="53.77" transform="translate(1001.979 414.23)" fill="none"/>
  </g>
</svg>
