<svg xmlns="http://www.w3.org/2000/svg" width="32.778" height="31.244" viewBox="0 0 32.778 31.244">
  <g id="shopping-cart" transform="translate(0 -10.67)">
    <g id="Grupo_19" data-name="Grupo 19" transform="translate(21.013 34.259)">
      <g id="Grupo_18" data-name="Grupo 18">
        <path id="Caminho_14" data-name="Caminho 14" d="M296.179,338.862a3.827,3.827,0,1,0,3.827,3.827A3.872,3.872,0,0,0,296.179,338.862Z" transform="translate(-292.352 -338.862)" fill="#868686"/>
      </g>
    </g>
    <g id="Grupo_21" data-name="Grupo 21" transform="translate(0 10.67)">
      <g id="Grupo_20" data-name="Grupo 20">
        <path id="Caminho_15" data-name="Caminho 15" d="M31.575,16.006c-.074,0-.184-.037-.294-.037H8.1L7.728,13.5A3.3,3.3,0,0,0,4.453,10.67H1.472a1.472,1.472,0,0,0,0,2.944H4.453a.391.391,0,0,1,.368.331L7.1,29.475A4.035,4.035,0,0,0,11.077,32.9H26.386a4.09,4.09,0,0,0,3.974-3.238L32.753,17.7A1.455,1.455,0,0,0,31.575,16.006Z" transform="translate(0 -10.67)" fill="#868686"/>
      </g>
    </g>
    <g id="Grupo_23" data-name="Grupo 23" transform="translate(7.983 34.259)">
      <g id="Grupo_22" data-name="Grupo 22">
        <path id="Caminho_16" data-name="Caminho 16" d="M118.543,342.505a3.8,3.8,0,0,0-3.79-3.643,3.849,3.849,0,0,0-3.68,3.974,3.772,3.772,0,0,0,3.754,3.643h.074A3.819,3.819,0,0,0,118.543,342.505Z" transform="translate(-111.07 -338.862)" fill="#868686"/>
      </g>
    </g>
  </g>
</svg>
