<svg id="time" xmlns="http://www.w3.org/2000/svg" width="53.766" height="53.766" viewBox="0 0 53.766 53.766">
  <g id="Grupo_4" data-name="Grupo 4">
    <g id="Grupo_3" data-name="Grupo 3">
      <path id="Caminho_1" data-name="Caminho 1" d="M26.883,0A26.883,26.883,0,1,0,53.766,26.883,26.883,26.883,0,0,0,26.883,0Zm0,49.925A23.042,23.042,0,1,1,49.925,26.883,23.042,23.042,0,0,1,26.883,49.925Z" fill="#ebebeb"/>
    </g>
  </g>
  <g id="Grupo_6" data-name="Grupo 6" transform="translate(9.601 9.601)">
    <g id="Grupo_5" data-name="Grupo 5">
      <path id="Caminho_2" data-name="Caminho 2" d="M102.615,85.333a1.92,1.92,0,0,0-1.92,1.92v13.441H87.253a1.92,1.92,0,1,0,0,3.84h15.362a1.92,1.92,0,0,0,1.92-1.92V87.253A1.92,1.92,0,0,0,102.615,85.333Z" transform="translate(-85.333 -85.333)" fill="#ebebeb"/>
    </g>
  </g>
</svg>
