<svg id="user" xmlns="http://www.w3.org/2000/svg" width="11.802" height="11.802" viewBox="0 0 11.802 11.802">
  <g id="Grupo_13" data-name="Grupo 13" transform="translate(0 7.587)">
    <g id="Grupo_12" data-name="Grupo 12">
      <path id="Caminho_11" data-name="Caminho 11" d="M9.514,307.819l-1.794-.6a.421.421,0,0,0-.133-.022H4.215a.421.421,0,0,0-.133.022l-1.794.6A3.341,3.341,0,0,0,0,310.992a.421.421,0,0,0,.421.421H11.38a.421.421,0,0,0,.421-.421A3.341,3.341,0,0,0,9.514,307.819Z" transform="translate(0 -307.199)" fill="#868686"/>
    </g>
  </g>
  <g id="Grupo_15" data-name="Grupo 15" transform="translate(3.372)">
    <g id="Grupo_14" data-name="Grupo 14">
      <path id="Caminho_12" data-name="Caminho 12" d="M139.062,0a2.529,2.529,0,0,0-2.529,2.529V4.215a2.529,2.529,0,1,0,5.058,0V2.529A2.529,2.529,0,0,0,139.062,0Z" transform="translate(-136.533)" fill="#868686"/>
    </g>
  </g>
</svg>
